<?xml version="1.0" standalone="no"?>
<!DOCTYPE svg PUBLIC "-//W3C//DTD SVG 20010904//EN"
 "http://www.w3.org/TR/2001/REC-SVG-20010904/DTD/svg10.dtd">
<svg version="1.0" xmlns="http://www.w3.org/2000/svg"
 width="512.000000pt" height="512.000000pt" viewBox="0 0 512.000000 512.000000"
 preserveAspectRatio="xMidYMid meet">
<metadata>
Created by potrace 1.11, written by Peter Selinger 2001-2013
</metadata>
<g transform="translate(0.000000,512.000000) scale(0.100000,-0.100000)"
fill="#000000" stroke="none">
<path d="M2070 4813 c-19 -2 -129 -4 -245 -5 -204 -3 -212 -4 -267 -30 -114
-53 -197 -160 -217 -279 -5 -30 -9 -391 -8 -802 1 -412 -1 -753 -4 -759 -4 -6
-97 -11 -245 -13 -183 -2 -250 -7 -287 -19 -165 -53 -291 -173 -358 -341 -24
-59 -24 -64 -27 -490 -2 -300 0 -448 8 -490 37 -186 178 -345 362 -407 68 -23
88 -25 308 -27 129 -1 237 -4 239 -7 2 -2 5 -124 6 -271 1 -255 3 -271 25
-325 34 -87 101 -159 185 -199 l70 -34 385 -5 c212 -3 846 -3 1410 0 l1025 5
60 32 c104 55 170 132 199 235 15 48 16 218 14 1603 l-3 1550 -27 59 c-16 32
-42 75 -59 95 -36 41 -175 194 -260 286 -31 33 -73 80 -95 104 -21 24 -52 58
-69 76 -16 17 -64 69 -105 115 -276 306 -311 331 -489 337 -117 5 -1475 9
-1531 6z m128 -267 c7 -4 12 -4 12 1 0 6 1292 10 1370 4 13 -1 15 -51 15 -390
0 -380 1 -390 21 -418 11 -15 36 -38 54 -50 33 -23 35 -23 409 -23 l376 0 -1
-1507 c0 -1669 4 -1555 -64 -1583 -35 -14 -90 -18 -108 -6 -7 4 -12 4 -12 -1
0 -10 -371 -10 -388 1 -7 4 -12 4 -12 -1 0 -10 -1572 -9 -1588 1 -7 4 -12 4
-12 -1 0 -4 -135 -8 -300 -7 -408 1 -380 -24 -380 337 l0 247 945 0 c520 0
947 0 950 1 140 27 257 89 334 176 57 65 114 172 130 248 6 31 10 214 10 477
l0 426 -29 81 c-50 141 -144 248 -277 315 -101 50 -87 50 -1098 52 -522 1
-953 3 -958 3 -4 1 -6 352 -5 781 l3 780 26 26 c15 14 41 29 58 33 44 9 504 7
519 -3z m-283 -2100 c22 -4 54 -12 72 -17 l32 -10 -14 -47 c-8 -26 -14 -48
-14 -50 0 -1 -2 -21 -6 -43 -6 -32 -10 -39 -23 -34 -39 16 -170 33 -227 30
-156 -8 -247 -109 -247 -271 0 -119 37 -196 115 -235 51 -26 70 -30 141 -30
70 1 78 5 76 39 -1 15 -2 80 -1 145 l1 117 33 -2 c17 -2 35 -7 39 -13 5 -7 8
-6 8 0 0 7 24 11 58 10 l57 0 0 -215 0 -215 -90 -23 c-89 -22 -275 -37 -275
-22 0 5 -9 6 -19 3 -11 -3 -46 3 -78 12 -174 51 -271 178 -280 370 -9 161 26
270 115 363 107 111 214 151 402 147 47 -1 103 -5 125 -9z m493 -439 l2 -437
-102 0 -103 0 1 428 c1 235 2 432 3 437 1 7 38 11 99 10 l97 -1 3 -437z m693
423 c4 -67 4 -137 1 -148 -3 -9 -37 -12 -132 -11 -70 1 -132 -1 -137 -4 -11
-7 -15 -176 -4 -178 3 -1 62 -2 131 -3 l125 -1 3 -83 3 -82 -53 -1 c-29 0 -89
-1 -133 -2 l-80 -2 0 -173 0 -172 -102 0 -103 0 0 438 0 437 240 0 c206 0 240
-2 241 -15z"/>
</g>
</svg>
